# xmcd
#
# Track frame offsets: 
#        182
#        16997
#        29245
#        38760
#        58485
#        75732
#        92957
#        110090
#        123620
#        141630
#        158155
#        171372
#
# Disc length: 2494 seconds
#
# Revision: 2
# Processed by: cddbd v1.5.1PL0 Copyright (c) Steve Scherf et al.
# Submitted via: ExactAudioCopy v0.95b2
#
DISCID=b509bc0c
DTITLE=Sir Douglas Quintet - Day Dreaming At Midnight
DYEAR=1994
DGENRE=Rock
TTITLE0=Too Little Too Late
TTITLE1=Twisted World
TTITLE2=Darling Dolores
TTITLE3=Day Dreaming At Midnight
TTITLE4=Into The Night
TTITLE5=Dylan Come Lately
TTITLE6=She Would If She Could, She Can't So She Won't
TTITLE7=You Don't Know How Young You Are
TTITLE8=County Line
TTITLE9=Romance Is All Screwed Up
TTITLE10=Freedom Is Mine
TTITLE11=Intoxication
EXTD=
EXTT0=
EXTT1=
EXTT2=
EXTT3=
EXTT4=
EXTT5=
EXTT6=
EXTT7=
EXTT8=
EXTT9=
EXTT10=
EXTT11=
PLAYORDER=
